<?xml version="1.0" encoding="UTF-8"?>
<!-- Generator: Adobe Illustrator 15.0.0, SVG Export Plug-In . SVG Version: 6.00 Build 0)  -->
<!DOCTYPE svg PUBLIC "-//W3C//DTD SVG 1.1//EN" "http://www.w3.org/Graphics/SVG/1.1/DTD/svg11.dtd">
<svg version="1.1" id="Selected_Items" xmlns="http://www.w3.org/2000/svg" xmlns:xlink="http://www.w3.org/1999/xlink" x="0px" y="0px" width="550px" height="400px" viewBox="0 0 550 400" enable-background="new 0 0 550 400" xml:space="preserve">
<g id="iphone">
	<g id="outlines">
		<path fill-rule="evenodd" clip-rule="evenodd" fill="#333333" d="M298.475,60.15c6.293-0.421,12.66,0.587,19.1,3.025L440.35,111.7    h-0.025c3.434,1.352,6.5,3.377,9.201,6.075l-0.025-0.05c1.686,1.631,3.46,3.856,5.324,6.675c0.06,0.094,0.117,0.186,0.176,0.275    c0.197,0.353,0.396,0.711,0.6,1.075c0.081,0.168,0.164,0.335,0.25,0.5c0.022,0.044,0.047,0.085,0.075,0.125    c0.033,0.066,0.067,0.133,0.101,0.2l-0.15-0.2c0.135,0.205,0.268,0.438,0.4,0.7l0.024,0.05c0.036,0.073,0.069,0.148,0.101,0.225    c0.427,0.87,0.852,1.77,1.274,2.7c0.015,0.052,0.03,0.102,0.05,0.15c1.689,4.085,2.531,8.268,2.525,12.55v0.05    c-0.043,5.618-1.576,10.259-4.6,13.925c-0.029,0.022-0.055,0.047-0.076,0.075l-135.25,161.55v0.025    c-9.618,11.441-20.818,18.342-33.6,20.699h-0.025c-12.649,2.381-26.282,0.098-40.899-6.85l-0.05-0.05l-133-65.45    c-0.153-0.072-0.303-0.146-0.45-0.225c-21.032-13.07-27.474-29.027-19.325-47.875c0.049-0.098,0.099-0.197,0.15-0.301    c0.192-0.381,0.4-0.748,0.625-1.1c1.675-3.549,4.267-6.882,7.775-10c0.082-0.072,0.166-0.146,0.25-0.225    c3.406-2.654,5.798-4.554,7.175-5.7c0.048-0.024,0.089-0.05,0.125-0.075l171.951-134.75l0.024-0.05    c4.72-3.66,10.512-5.744,17.375-6.25L298.475,60.15z"/>
	</g>
	<g id="bg">
		<path fill-rule="evenodd" clip-rule="evenodd" fill="#999999" d="M450.65,127.15c0.266,0.467,0.533,0.95,0.799,1.45    c0.033,0.067,0.067,0.133,0.101,0.2c0.033,0.033,0.05,0.083,0.05,0.15c0.066,0.1,0.133,0.217,0.2,0.35    c0.433,0.9,0.866,1.833,1.3,2.8c1.434,3.467,2.15,7.017,2.15,10.65c-0.033,4.367-1.2,7.983-3.5,10.85L316.5,315.15    c-8.801,10.467-19.033,16.799-30.7,19c-11.7,2.133-24.317-0.018-37.85-6.451l-133-65.449c-18.4-11.434-24.183-25.334-17.35-41.7    c0.167-0.333,0.35-0.649,0.55-0.95c1.433-3.066,3.667-5.949,6.7-8.65c3.467-2.699,5.9-4.633,7.3-5.799L284.1,70.4    c4-3.067,8.9-4.817,14.7-5.25c5.601-0.367,11.267,0.533,17,2.7l122.7,48.5c2.8,1.1,5.3,2.75,7.5,4.95    C447.467,122.733,449.017,124.683,450.65,127.15z"/>
	</g>
	<g id="grey">
		<path fill-rule="evenodd" clip-rule="evenodd" fill="#333333" d="M446.25,125.35c1.566,3.034,1.066,5.967-1.5,8.8L301,293.8    c-4.334,4.267-9.9,6.483-16.7,6.649c-6.267,0.168-13.7-1.449-22.3-4.85l-140.65-67c-5.9-2.767-9.2-6.5-9.9-11.199    c-0.633-4.334,1.017-8.051,4.95-11.15l169.799-134.3c3.701-2.7,7.951-4.316,12.75-4.85c4.734-0.566,9.567-0.017,14.5,1.65    l122.5,48.65C441.184,119.7,444.617,122.35,446.25,125.35z M451.6,128.95c0.066,0.1,0.133,0.217,0.2,0.35    c0.433,0.9,0.866,1.833,1.3,2.8c1.434,3.467,2.15,7.017,2.15,10.65c-0.033,4.367-1.2,7.983-3.5,10.85L316.5,315.15    c-8.801,10.467-19.033,16.799-30.7,19c-11.7,2.133-24.317-0.018-37.85-6.451l-133-65.449c-18.4-11.434-24.183-25.334-17.35-41.7    c0.167-0.333,0.35-0.649,0.55-0.95c-1.967,4.133-0.7,8.816,3.8,14.051c3.5,4,7.467,7.1,11.9,9.299l144.6,69.201    c11.267,5.166,22.117,6.717,32.55,4.649c10-2.033,18.684-7.2,26.05-15.5l133.7-157.45c1.4-1.867,2.083-4.6,2.05-8.2    C452.767,132.983,452.367,130.75,451.6,128.95z M379.8,105.6l-28.3-11.3c-1.934-0.733-3.5-0.417-4.7,0.95    c-1.167,1.367-0.817,2.433,1.05,3.2l28.051,11.4c1.933,0.8,3.533,0.467,4.799-1C381.934,107.383,381.633,106.3,379.8,105.6z     M275.3,82.65L138.25,192.2L314.6,273.9L430.1,146.7L275.3,82.65z M220.05,307.6l1.85-9.199l-76.2-36.051l-1.8,8.801L220.05,307.6    z M205.4,243.9c1.066-0.734,2.417-0.734,4.05,0l8.05,3.649c0.933,0.5,0.733,1.399-0.6,2.7l-3.5,3.5    c-1.233,0.934-2.567,1.117-4,0.55l-8.35-4.3c-0.567-0.301-0.817-0.684-0.75-1.15s0.433-0.982,1.1-1.55L205.4,243.9z     M187.35,245.949c0,4.101,2.133,7.617,6.4,10.551c4.3,2.9,9.466,4.35,15.5,4.35c6.066,0,11.25-1.449,15.55-4.35    c4.267-2.934,6.4-6.45,6.4-10.551c0-4.1-2.133-7.6-6.4-10.5c-4.3-2.933-9.483-4.399-15.55-4.399c-6.034,0-11.2,1.467-15.5,4.399    C189.483,238.35,187.35,241.85,187.35,245.949z"/>
	</g>
	<g id="lines">
		
			<path fill-rule="evenodd" clip-rule="evenodd" fill="none" stroke="#333333" stroke-linecap="round" stroke-linejoin="round" stroke-miterlimit="3" d="    M451.55,128.8c-0.033-0.067-0.067-0.133-0.101-0.2c-0.266-0.5-0.533-0.983-0.799-1.45c-1.634-2.467-3.184-4.417-4.65-5.85    c-2.2-2.2-4.7-3.85-7.5-4.95l-122.7-48.5c-5.733-2.167-11.399-3.066-17-2.7c-5.8,0.433-10.7,2.183-14.7,5.25L112.15,205.15    c-1.4,1.166-3.833,3.1-7.3,5.799c-3.033,2.701-5.267,5.584-6.7,8.65c-1.967,4.133-0.7,8.816,3.8,14.051    c3.5,4,7.467,7.1,11.9,9.299l144.6,69.201c11.267,5.166,22.117,6.717,32.55,4.649c10-2.033,18.684-7.2,26.05-15.5l133.7-157.45    c1.4-1.867,2.083-4.6,2.05-8.2c-0.033-2.667-0.433-4.9-1.2-6.7C451.6,128.883,451.583,128.833,451.55,128.8z M444.75,134.15    L301,293.8c-4.334,4.267-9.9,6.483-16.7,6.649c-6.267,0.168-13.7-1.449-22.3-4.85l-140.65-67c-5.9-2.767-9.2-6.5-9.9-11.199    c-0.633-4.334,1.017-8.051,4.95-11.15l169.799-134.3c3.701-2.7,7.951-4.316,12.75-4.85c4.734-0.566,9.567-0.017,14.5,1.65    l122.5,48.65c5.234,2.3,8.668,4.95,10.301,7.95C447.816,128.383,447.316,131.316,444.75,134.15z M451.6,128.95    c0.066,0.1,0.133,0.217,0.2,0.35c0.433,0.9,0.866,1.833,1.3,2.8c1.434,3.467,2.15,7.017,2.15,10.65    c-0.033,4.367-1.2,7.983-3.5,10.85L316.5,315.15c-8.801,10.467-19.033,16.799-30.7,19c-11.7,2.133-24.317-0.018-37.85-6.451    l-133-65.449c-18.4-11.434-24.183-25.334-17.35-41.7c0.167-0.333,0.35-0.649,0.55-0.95 M379.8,105.6l-28.3-11.3    c-1.934-0.733-3.5-0.417-4.7,0.95c-1.167,1.367-0.817,2.433,1.05,3.2l28.051,11.4c1.933,0.8,3.533,0.467,4.799-1    C381.934,107.383,381.633,106.3,379.8,105.6z M187.35,245.949c0-4.1,2.133-7.6,6.4-10.5c4.3-2.933,9.466-4.399,15.5-4.399    c6.066,0,11.25,1.467,15.55,4.399c4.267,2.9,6.4,6.4,6.4,10.5c0,4.101-2.133,7.617-6.4,10.551c-4.3,2.9-9.483,4.35-15.55,4.35    c-6.034,0-11.2-1.449-15.5-4.35C189.483,253.566,187.35,250.05,187.35,245.949z M205.4,243.9l-4,3.399    c-0.667,0.567-1.033,1.083-1.1,1.55s0.183,0.85,0.75,1.15l8.35,4.3c1.433,0.567,2.767,0.384,4-0.55l3.5-3.5    c1.333-1.301,1.533-2.2,0.6-2.7l-8.05-3.649C207.816,243.166,206.466,243.166,205.4,243.9z M220.05,307.6L143.9,271.15l1.8-8.801    l76.2,36.051L220.05,307.6z M138.25,192.2L275.3,82.65l154.8,64.05L314.6,273.9L138.25,192.2z"/>
	</g>
</g>
</svg>